<svg height="48" width="48" xmlns="http://www.w3.org/2000/svg" xmlns:xlink="http://www.w3.org/1999/xlink">
  <linearGradient id="a" gradientTransform="translate(-18.840201 -.287637)" gradientUnits="userSpaceOnUse" x1="54.603077" x2="53.045727" xlink:href="#c" y1="40.466362" y2="28.601351" />
  <linearGradient id="b" gradientTransform="matrix(.35600995 0 0 .3512235 240.525 893.33752)" gradientUnits="userSpaceOnUse" x1="-989.66583" x2="-1003.6364" y1="433.28394" y2="317.35452">
    <stop offset="0" stop-color="#292926" />
    <stop offset="1" stop-color="#484b4d" />
  </linearGradient>
  <linearGradient id="c" gradientTransform="matrix(.35549809 0 0 .35079564 81.583509 925.45618)" gradientUnits="userSpaceOnUse" x1="-1092.9117" x2="-1060.2551" y1="203.09911" y2="104.85291">
    <stop offset=".12608695652" stop-color="#087dc3" />
    <stop offset=".98260869565" stop-color="#29abe2" />
  </linearGradient>
  <rect fill="url(#c)" height="40.214249" ry=".981484" transform="matrix(.87001805 -.28868288 .28160526 .87233462 .366915 -920.167254)" width="31.911476" x="-309.6644" y="964.93665" />
  <rect fill="url(#b)" height="43.171936" ry="1.053671" transform="matrix(.90942438 -.114963 .12632757 .90791549 .366915 -920.167254)" width="35.538715" x="-131.75444" y="1004.4296" />
  <g fill-rule="evenodd" transform="matrix(.62086833 -.08752302 .09706648 .6885675 -64.25234 -685.068057)">
    <g fill="#fff">
      <path d="m-34.260591 1005.781314h2v.999863h-2z" opacity=".8" />
      <path d="m-34.260591 1009.781214h2v.999863h-2z" opacity=".8" />
      <path d="m-34.260591 1007.781314h2v.999863h-2z" opacity=".8" />
      <path d="m-34.260591 1011.781214h2v.999863h-2z" opacity=".8" />
      <path d="m-34.260591 1015.781214h2v.999863h-2z" opacity=".8" />
      <path d="m-34.260591 1013.781214h2v.999863h-2z" opacity=".8" />
      <path d="m-34.260591 1017.781214h2v.999863h-2z" opacity=".8" />
      <path d="m-34.260591 1021.781214h2v.999863h-2z" opacity=".8" />
      <path d="m-34.260591 1019.781214h2v.999863h-2z" opacity=".8" />
    </g>
    <path d="m-31.260591 1005.781114h9v.999863h-9z" fill="#f92672" opacity=".8" />
    <path d="m-21.260591 1005.781314h6v.999863h-6z" fill="#fff" opacity=".8" />
    <path d="m-14.260591 1005.781314h4v.999863h-4z" fill="#fff" opacity=".8" />
    <path d="m-31.260591 1007.781114h5v1.000017h-5z" fill="#fd971f" opacity=".8" />
    <path d="m-25.260591 1007.781114h2v1.000105h-2z" fill="#fff" opacity=".8" />
    <path d="m-22.260591 1007.781314h9v.999863h-9z" fill="#a6e22e" opacity=".8" />
    <path d="m-31.260591 1009.781114h7v.999863h-7z" fill="#f92672" opacity=".8" />
    <path d="m-23.260591 1009.781314h5v.999863h-5z" fill="#fd971f" opacity=".8" />
    <path d="m-17.260591 1009.781214h2v.999863h-2z" fill="#fff" opacity=".8" />
    <path d="m-29.260591 1011.781114h4v.999863h-4z" fill="#f92672" opacity=".8" />
    <path d="m-24.260591 1011.781314h10v.999863h-10z" fill="#a6e22e" opacity=".8" />
    <path d="m-13.260591 1011.781314h4v.999863h-4z" fill="#fff" opacity=".8" />
    <path d="m-29.260591 1013.781114h6v.999863h-6z" fill="#f92672" opacity=".8" />
    <path d="m-22.260591 1013.781314h6v.999863h-6z" fill="#66d9ef" opacity=".8" />
    <path d="m-15.260591 1013.781314h4v.999863h-4z" fill="#a6e22e" opacity=".8" />
    <path d="m-29.260591 1015.781114h2v.999863h-2z" fill="#f92672" opacity=".8" />
    <path d="m-26.260591 1015.781314h13v.999863h-13z" fill="#66d9ef" opacity=".8" />
    <path d="m-12.260591 1015.781314h5.5v.999863h-5.5z" fill="#fff" opacity=".8" />
    <path d="m-29.260591 1017.781114h3v.999863h-3z" fill="#f92672" opacity=".8" />
    <path d="m-25.260591 1017.781314h11v.999863h-11z" fill="#66d9ef" opacity=".8" />
    <path d="m-13.260591 1017.781314h4v.999863h-4z" fill="#fff" opacity=".8" />
    <rect fill="#fff" height="1.000017" opacity=".8" ry=".000017" width="2" x="-31.260591" y="1019.781114" />
    <path d="m-28.260591 1019.781314h8v.999863h-8z" fill="#66d9ef" opacity=".8" />
    <path d="m-19.260591 1019.781314h3v.999863h-3z" fill="#fd971f" opacity=".8" />
    <path d="m-31.260591 1021.781114h4v.999863h-4z" fill="#f92672" opacity=".8" />
    <path d="m-26.260591 1021.781314h11v.999863h-11z" fill="#a6e22e" opacity=".8" />
    <path d="m-14.260591 1021.781314h2.5v.999863h-2.5z" fill="#fff" opacity=".8" />
    <path d="m-31.260591 1011.781114h1v7h-1z" fill="#faffeb" opacity=".678899" />
    <g fill="#fff">
      <path d="m-34.28725 1023.798019h2v.999863h-2z" opacity=".8" />
      <path d="m-34.28725 1025.798019h2v.999863h-2z" opacity=".8" />
      <path d="m-34.28725 1029.798019h2v.999863h-2z" opacity=".8" />
      <path d="m-34.28725 1027.798019h2v.999863h-2z" opacity=".8" />
    </g>
    <path d="m-29.28725 1023.797819h2v.999863h-2z" fill="#f92672" opacity=".8" />
    <path d="m-26.28725 1023.798119h13v.999863h-13z" fill="#66d9ef" opacity=".8" />
    <path d="m-12.28725 1023.798119h5.5v.999863h-5.5z" fill="#fff" opacity=".8" />
    <path d="m-29.28725 1025.797819h3v.999863h-3z" fill="#f92672" opacity=".8" />
    <path d="m-25.28725 1025.798119h11v.999863h-11z" fill="#66d9ef" opacity=".8" />
    <path d="m-13.28725 1025.798119h4v.999863h-4z" fill="#fff" opacity=".8" />
    <rect fill="#fff" height="1.000017" opacity=".8" ry=".000017" width="2" x="-31.28725" y="1027.797819" />
    <path d="m-28.28725 1027.798119h8v.999863h-8z" fill="#66d9ef" opacity=".8" />
    <path d="m-19.28725 1027.798119h3v.999863h-3z" fill="#fd971f" opacity=".8" />
    <path d="m-31.28725 1029.797819h4v.999863h-4z" fill="#f92672" opacity=".8" />
    <path d="m-26.28725 1029.798119h11v.999863h-11z" fill="#a6e22e" opacity=".8" />
    <path d="m-14.28725 1029.798119h2.5v.999863h-2.5z" fill="#fff" opacity=".8" />
  </g>
  <path d="m32.178205 40.568317c-1.318101.161842-2.512755-.771524-2.674597-2.089625l-.87746-7.146332c-.161842-1.318101.771524-2.512755 2.089625-2.674597l7.146332-.87746c1.318101-.161842 2.512755.771524 2.674597 2.089625l.87746 7.146332c.161842 1.318101-.771524 2.512755-2.089625 2.674597zm6.767304-10.528807c-.05243-.427016-.451516-.724777-.870767-.673299l-7.189387.882745c-.427016.05243-.72573.443752-.674253.863004l.882746 7.189387c.05243.427015.444705.733493.863957.682016l7.189387-.882746c.427015-.05243.73254-.452469.681062-.87172zm-3.284597 6.071145 1.588074-.194991-.487477-3.970185-1.588074.194991-.194991-1.588074 3.176148-.389982.877459 7.146333-3.176148.389981zm-4.652653-5.070782 3.176148-.389981.194991 1.588073-1.588074.194991.487477 3.970185 1.588074-.194991.194991 1.588074-3.176148.389982z" fill="url(#a)" stroke-width=".8" />
</svg>
