<svg height="48" width="48" xmlns="http://www.w3.org/2000/svg" xmlns:xlink="http://www.w3.org/1999/xlink">
  <linearGradient id="a" gradientTransform="matrix(3.08228 -10.3064 8.72379 3.56577 19.8394 42.498)" gradientUnits="userSpaceOnUse" x1="0" x2="1" y1="0" y2="0">
    <stop offset="0" stop-color="#ff9700" />
    <stop offset=".53" stop-color="#f48e00" />
    <stop offset="1" stop-color="#d06f00" />
  </linearGradient>
  <linearGradient id="b" gradientTransform="matrix(.35600995 0 0 .3512235 240.525 893.33752)" gradientUnits="userSpaceOnUse" x1="-989.66583" x2="-1003.6364" y1="433.28394" y2="317.35452">
    <stop offset="0" stop-color="#292926" />
    <stop offset="1" stop-color="#484b4d" />
  </linearGradient>
  <linearGradient id="c" gradientTransform="matrix(.35549809 0 0 .35079564 81.583509 925.45618)" gradientUnits="userSpaceOnUse" x1="-1092.9117" x2="-1060.2551" y1="203.09911" y2="104.85291">
    <stop offset="0" stop-color="#fc7816" />
    <stop offset="1" stop-color="#ffac01" />
  </linearGradient>
  <rect fill="url(#c)" height="40.214249" ry=".981484" transform="matrix(.87001805 -.28868288 .28160526 .87233462 .366915 -920.167254)" width="31.911476" x="-309.6644" y="964.93665" />
  <rect fill="url(#b)" height="43.171936" ry="1.053671" transform="matrix(.90942438 -.114963 .12632757 .90791549 .366915 -920.167254)" width="35.538715" x="-131.75444" y="1004.4296" />
  <g fill-rule="evenodd">
    <g transform="matrix(.62086833 -.08752302 .09706648 .6885675 -64.25234 -685.068057)">
      <g fill="#fff">
        <path d="m-34.260591 1005.781314h2v.999863h-2z" opacity=".8" />
        <path d="m-34.260591 1009.781214h2v.999863h-2z" opacity=".8" />
        <path d="m-34.260591 1007.781314h2v.999863h-2z" opacity=".8" />
        <path d="m-34.260591 1011.781214h2v.999863h-2z" opacity=".8" />
        <path d="m-34.260591 1015.781214h2v.999863h-2z" opacity=".8" />
        <path d="m-34.260591 1013.781214h2v.999863h-2z" opacity=".8" />
        <path d="m-34.260591 1017.781214h2v.999863h-2z" opacity=".8" />
        <path d="m-34.260591 1021.781214h2v.999863h-2z" opacity=".8" />
        <path d="m-34.260591 1019.781214h2v.999863h-2z" opacity=".8" />
      </g>
      <path d="m-31.260591 1005.781114h9v.999863h-9z" fill="#f92672" opacity=".8" />
      <path d="m-21.260591 1005.781314h6v.999863h-6z" fill="#fff" opacity=".8" />
      <path d="m-14.260591 1005.781314h4v.999863h-4z" fill="#fff" opacity=".8" />
      <path d="m-31.260591 1007.781114h5v1.000017h-5z" fill="#fd971f" opacity=".8" />
      <path d="m-25.260591 1007.781114h2v1.000105h-2z" fill="#fff" opacity=".8" />
      <path d="m-22.260591 1007.781314h9v.999863h-9z" fill="#a6e22e" opacity=".8" />
      <path d="m-31.260591 1009.781114h7v.999863h-7z" fill="#f92672" opacity=".8" />
      <path d="m-23.260591 1009.781314h5v.999863h-5z" fill="#fd971f" opacity=".8" />
      <path d="m-17.260591 1009.781214h2v.999863h-2z" fill="#fff" opacity=".8" />
      <path d="m-29.260591 1011.781114h4v.999863h-4z" fill="#f92672" opacity=".8" />
      <path d="m-24.260591 1011.781314h10v.999863h-10z" fill="#a6e22e" opacity=".8" />
      <path d="m-13.260591 1011.781314h4v.999863h-4z" fill="#fff" opacity=".8" />
      <path d="m-29.260591 1013.781114h6v.999863h-6z" fill="#f92672" opacity=".8" />
      <path d="m-22.260591 1013.781314h6v.999863h-6z" fill="#66d9ef" opacity=".8" />
      <path d="m-15.260591 1013.781314h4v.999863h-4z" fill="#a6e22e" opacity=".8" />
      <path d="m-29.260591 1015.781114h2v.999863h-2z" fill="#f92672" opacity=".8" />
      <path d="m-26.260591 1015.781314h13v.999863h-13z" fill="#66d9ef" opacity=".8" />
      <path d="m-12.260591 1015.781314h5.5v.999863h-5.5z" fill="#fff" opacity=".8" />
      <path d="m-29.260591 1017.781114h3v.999863h-3z" fill="#f92672" opacity=".8" />
      <path d="m-25.260591 1017.781314h11v.999863h-11z" fill="#66d9ef" opacity=".8" />
      <path d="m-13.260591 1017.781314h4v.999863h-4z" fill="#fff" opacity=".8" />
      <rect fill="#fff" height="1.000017" opacity=".8" ry=".000017" width="2" x="-31.260591" y="1019.781114" />
      <path d="m-28.260591 1019.781314h8v.999863h-8z" fill="#66d9ef" opacity=".8" />
      <path d="m-19.260591 1019.781314h3v.999863h-3z" fill="#fd971f" opacity=".8" />
      <path d="m-31.260591 1021.781114h4v.999863h-4z" fill="#f92672" opacity=".8" />
      <path d="m-26.260591 1021.781314h11v.999863h-11z" fill="#a6e22e" opacity=".8" />
      <path d="m-14.260591 1021.781314h2.5v.999863h-2.5z" fill="#fff" opacity=".8" />
      <path d="m-31.260591 1011.781114h1v7h-1z" fill="#faffeb" opacity=".678899" />
      <g fill="#fff">
        <path d="m-34.28725 1023.798019h2v.999863h-2z" opacity=".8" />
        <path d="m-34.28725 1025.798019h2v.999863h-2z" opacity=".8" />
        <path d="m-34.28725 1029.798019h2v.999863h-2z" opacity=".8" />
        <path d="m-34.28725 1027.798019h2v.999863h-2z" opacity=".8" />
      </g>
      <path d="m-29.28725 1023.797819h2v.999863h-2z" fill="#f92672" opacity=".8" />
      <path d="m-26.28725 1023.798119h13v.999863h-13z" fill="#66d9ef" opacity=".8" />
      <path d="m-12.28725 1023.798119h5.5v.999863h-5.5z" fill="#fff" opacity=".8" />
      <path d="m-29.28725 1025.797819h3v.999863h-3z" fill="#f92672" opacity=".8" />
      <path d="m-25.28725 1025.798119h11v.999863h-11z" fill="#66d9ef" opacity=".8" />
      <path d="m-13.28725 1025.798119h4v.999863h-4z" fill="#fff" opacity=".8" />
      <rect fill="#fff" height="1.000017" opacity=".8" ry=".000017" width="2" x="-31.28725" y="1027.797819" />
      <path d="m-28.28725 1027.798119h8v.999863h-8z" fill="#66d9ef" opacity=".8" />
      <path d="m-19.28725 1027.798119h3v.999863h-3z" fill="#fd971f" opacity=".8" />
      <path d="m-31.28725 1029.797819h4v.999863h-4z" fill="#f92672" opacity=".8" />
      <path d="m-26.28725 1029.798119h11v.999863h-11z" fill="#a6e22e" opacity=".8" />
      <path d="m-14.28725 1029.798119h2.5v.999863h-2.5z" fill="#fff" opacity=".8" />
    </g>
    <g clip-rule="evenodd" stroke-linejoin="round" stroke-miterlimit="1.41421" transform="matrix(.29500677 -.03622228 .03622228 .29500677 29.087814 26.121245)">
      <path d="m35.995 26.563c0-.548-.405-.864-.902-.707l-34.191 10.842c-.498.158-.902.731-.902 1.278v11.081c0 .548.404.865.902.707l34.191-10.841c.497-.158.902-.731.902-1.279z" fill="url(#a)" />
      <g fill="#ff9800">
        <path d="m0 26.21c0 .548.404 1.121.902 1.279l34.196 10.843c.498.158.902-.159.902-.706v-11.082c0-.547-.404-1.12-.902-1.278l-34.196-10.843c-.498-.158-.902.158-.902.706z" />
        <path d="m35.995 3.793c0-.548-.405-.865-.902-.707l-34.191 10.841c-.498.158-.902.731-.902 1.279v11.081c0 .548.404.864.902.707l34.191-10.842c.497-.158.902-.731.902-1.278z" />
      </g>
    </g>
  </g>
</svg>
